<?xml version="1.0" encoding="utf-8" standalone="no"?>
<!DOCTYPE svg PUBLIC "-//W3C//DTD SVG 1.1//EN"
  "http://www.w3.org/Graphics/SVG/1.1/DTD/svg11.dtd">
<svg xmlns:xlink="http://www.w3.org/1999/xlink" width="999.021065pt" height="347.577687pt" viewBox="0 0 999.021065 347.577687" xmlns="http://www.w3.org/2000/svg" version="1.1">
 <metadata>
  <rdf:RDF xmlns:dc="http://purl.org/dc/elements/1.1/" xmlns:cc="http://creativecommons.org/ns#" xmlns:rdf="http://www.w3.org/1999/02/22-rdf-syntax-ns#">
   <cc:Work>
    <dc:type rdf:resource="http://purl.org/dc/dcmitype/StillImage"/>
    <dc:date>2026-01-31T11:16:57.112498</dc:date>
    <dc:format>image/svg+xml</dc:format>
    <dc:creator>
     <cc:Agent>
      <dc:title>Matplotlib v3.10.8, https://matplotlib.org/</dc:title>
     </cc:Agent>
    </dc:creator>
   </cc:Work>
  </rdf:RDF>
 </metadata>
 <defs>
  <style type="text/css">*{stroke-linejoin: round; stroke-linecap: butt}</style>
 </defs>
 <g id="figure_1">
  <g id="patch_1">
   <path d="M 0 347.577687 
L 999.021065 347.577687 
L 999.021065 0 
L 0 0 
z
" style="fill: #ffffff"/>
  </g>
  <g id="axes_1">
   <g id="patch_2">
    <path d="M 47.41375 308.085812 
L 495.892408 308.085812 
L 495.892408 23.837812 
L 47.41375 23.837812 
z
" style="fill: #ffffff"/>
   </g>
   <g id="matplotlib.axis_1">
    <g id="xtick_1">
     <g id="line2d_1">
      <path d="M 67.799144 308.085812 
L 67.799144 23.837812 
" clip-path="url(#p60e4cfe94c)" style="fill: none; stroke: #b0b0b0; stroke-opacity: 0.3; stroke-width: 0.8; stroke-linecap: square"/>
     </g>
     <g id="line2d_2">
      <defs>
       <path id="mc109519981" d="M 0 0 
L 0 3.5 
" style="stroke: #000000; stroke-width: 0.8"/>
      </defs>
      <g>
       <use xlink:href="#mc109519981" x="67.799144" y="308.085812" style="stroke: #000000; stroke-width: 0.8"/>
      </g>
     </g>
     <g id="text_1">
      <!-- $\mathdefault{2^{5}}$ -->
      <g transform="translate(62.199144 322.68425) scale(0.1 -0.1)">
       <defs>
        <path id="DejaVuSans-32" d="M 1228 531 
L 3431 531 
L 3431 0 
L 469 0 
L 469 531 
Q 828 903 1448 1529 
Q 2069 2156 2228 2338 
Q 2531 2678 2651 2914 
Q 2772 3150 2772 3378 
Q 2772 3750 2511 3984 
Q 2250 4219 1831 4219 
Q 1534 4219 1204 4116 
Q 875 4013 500 3803 
L 500 4441 
Q 881 4594 1212 4672 
Q 1544 4750 1819 4750 
Q 2544 4750 2975 4387 
Q 3406 4025 3406 3419 
Q 3406 3131 3298 2873 
Q 3191 2616 2906 2266 
Q 2828 2175 2409 1742 
Q 1991 1309 1228 531 
z
" transform="scale(0.015625)"/>
        <path id="DejaVuSans-35" d="M 691 4666 
L 3169 4666 
L 3169 4134 
L 1269 4134 
L 1269 2991 
Q 1406 3038 1543 3061 
Q 1681 3084 1819 3084 
Q 2600 3084 3056 2656 
Q 3513 2228 3513 1497 
Q 3513 744 3044 326 
Q 2575 -91 1722 -91 
Q 1428 -91 1123 -41 
Q 819 9 494 109 
L 494 744 
Q 775 591 1075 516 
Q 1375 441 1709 441 
Q 2250 441 2565 725 
Q 2881 1009 2881 1497 
Q 2881 1984 2565 2268 
Q 2250 2553 1709 2553 
Q 1456 2553 1204 2497 
Q 953 2441 691 2322 
L 691 4666 
z
" transform="scale(0.015625)"/>
       </defs>
       <use xlink:href="#DejaVuSans-32" transform="translate(0 0.684375)"/>
       <use xlink:href="#DejaVuSans-35" transform="translate(64.580078 38.965625) scale(0.7)"/>
      </g>
     </g>
    </g>
    <g id="xtick_2">
     <g id="line2d_3">
      <path d="M 203.701767 308.085812 
L 203.701767 23.837812 
" clip-path="url(#p60e4cfe94c)" style="fill: none; stroke: #b0b0b0; stroke-opacity: 0.3; stroke-width: 0.8; stroke-linecap: square"/>
     </g>
     <g id="line2d_4">
      <g>
       <use xlink:href="#mc109519981" x="203.701767" y="308.085812" style="stroke: #000000; stroke-width: 0.8"/>
      </g>
     </g>
     <g id="text_2">
      <!-- $\mathdefault{2^{6}}$ -->
      <g transform="translate(198.101767 322.68425) scale(0.1 -0.1)">
       <defs>
        <path id="DejaVuSans-36" d="M 2113 2584 
Q 1688 2584 1439 2293 
Q 1191 2003 1191 1497 
Q 1191 994 1439 701 
Q 1688 409 2113 409 
Q 2538 409 2786 701 
Q 3034 994 3034 1497 
Q 3034 2003 2786 2293 
Q 2538 2584 2113 2584 
z
M 3366 4563 
L 3366 3988 
Q 3128 4100 2886 4159 
Q 2644 4219 2406 4219 
Q 1781 4219 1451 3797 
Q 1122 3375 1075 2522 
Q 1259 2794 1537 2939 
Q 1816 3084 2150 3084 
Q 2853 3084 3261 2657 
Q 3669 2231 3669 1497 
Q 3669 778 3244 343 
Q 2819 -91 2113 -91 
Q 1303 -91 875 529 
Q 447 1150 447 2328 
Q 447 3434 972 4092 
Q 1497 4750 2381 4750 
Q 2619 4750 2861 4703 
Q 3103 4656 3366 4563 
z
" transform="scale(0.015625)"/>
       </defs>
       <use xlink:href="#DejaVuSans-32" transform="translate(0 0.765625)"/>
       <use xlink:href="#DejaVuSans-36" transform="translate(64.580078 39.046875) scale(0.7)"/>
      </g>
     </g>
    </g>
    <g id="xtick_3">
     <g id="line2d_5">
      <path d="M 339.604391 308.085812 
L 339.604391 23.837812 
" clip-path="url(#p60e4cfe94c)" style="fill: none; stroke: #b0b0b0; stroke-opacity: 0.3; stroke-width: 0.8; stroke-linecap: square"/>
     </g>
     <g id="line2d_6">
      <g>
       <use xlink:href="#mc109519981" x="339.604391" y="308.085812" style="stroke: #000000; stroke-width: 0.8"/>
      </g>
     </g>
     <g id="text_3">
      <!-- $\mathdefault{2^{7}}$ -->
      <g transform="translate(334.004391 322.68425) scale(0.1 -0.1)">
       <defs>
        <path id="DejaVuSans-37" d="M 525 4666 
L 3525 4666 
L 3525 4397 
L 1831 0 
L 1172 0 
L 2766 4134 
L 525 4134 
L 525 4666 
z
" transform="scale(0.015625)"/>
       </defs>
       <use xlink:href="#DejaVuSans-32" transform="translate(0 0.684375)"/>
       <use xlink:href="#DejaVuSans-37" transform="translate(64.580078 38.965625) scale(0.7)"/>
      </g>
     </g>
    </g>
    <g id="xtick_4">
     <g id="line2d_7">
      <path d="M 475.507014 308.085812 
L 475.507014 23.837812 
" clip-path="url(#p60e4cfe94c)" style="fill: none; stroke: #b0b0b0; stroke-opacity: 0.3; stroke-width: 0.8; stroke-linecap: square"/>
     </g>
     <g id="line2d_8">
      <g>
       <use xlink:href="#mc109519981" x="475.507014" y="308.085812" style="stroke: #000000; stroke-width: 0.8"/>
      </g>
     </g>
     <g id="text_4">
      <!-- $\mathdefault{2^{8}}$ -->
      <g transform="translate(469.907014 322.68425) scale(0.1 -0.1)">
       <defs>
        <path id="DejaVuSans-38" d="M 2034 2216 
Q 1584 2216 1326 1975 
Q 1069 1734 1069 1313 
Q 1069 891 1326 650 
Q 1584 409 2034 409 
Q 2484 409 2743 651 
Q 3003 894 3003 1313 
Q 3003 1734 2745 1975 
Q 2488 2216 2034 2216 
z
M 1403 2484 
Q 997 2584 770 2862 
Q 544 3141 544 3541 
Q 544 4100 942 4425 
Q 1341 4750 2034 4750 
Q 2731 4750 3128 4425 
Q 3525 4100 3525 3541 
Q 3525 3141 3298 2862 
Q 3072 2584 2669 2484 
Q 3125 2378 3379 2068 
Q 3634 1759 3634 1313 
Q 3634 634 3220 271 
Q 2806 -91 2034 -91 
Q 1263 -91 848 271 
Q 434 634 434 1313 
Q 434 1759 690 2068 
Q 947 2378 1403 2484 
z
M 1172 3481 
Q 1172 3119 1398 2916 
Q 1625 2713 2034 2713 
Q 2441 2713 2670 2916 
Q 2900 3119 2900 3481 
Q 2900 3844 2670 4047 
Q 2441 4250 2034 4250 
Q 1625 4250 1398 4047 
Q 1172 3844 1172 3481 
z
" transform="scale(0.015625)"/>
       </defs>
       <use xlink:href="#DejaVuSans-32" transform="translate(0 0.765625)"/>
       <use xlink:href="#DejaVuSans-38" transform="translate(64.580078 39.046875) scale(0.7)"/>
      </g>
     </g>
    </g>
    <g id="text_5">
     <!-- Matrix Size (N=M) -->
     <g transform="translate(217.256516 337.882062) scale(0.12 -0.12)">
      <defs>
       <path id="DejaVuSans-4d" d="M 628 4666 
L 1569 4666 
L 2759 1491 
L 3956 4666 
L 4897 4666 
L 4897 0 
L 4281 0 
L 4281 4097 
L 3078 897 
L 2444 897 
L 1241 4097 
L 1241 0 
L 628 0 
L 628 4666 
z
" transform="scale(0.015625)"/>
       <path id="DejaVuSans-61" d="M 2194 1759 
Q 1497 1759 1228 1600 
Q 959 1441 959 1056 
Q 959 750 1161 570 
Q 1363 391 1709 391 
Q 2188 391 2477 730 
Q 2766 1069 2766 1631 
L 2766 1759 
L 2194 1759 
z
M 3341 1997 
L 3341 0 
L 2766 0 
L 2766 531 
Q 2569 213 2275 61 
Q 1981 -91 1556 -91 
Q 1019 -91 701 211 
Q 384 513 384 1019 
Q 384 1609 779 1909 
Q 1175 2209 1959 2209 
L 2766 2209 
L 2766 2266 
Q 2766 2663 2505 2880 
Q 2244 3097 1772 3097 
Q 1472 3097 1187 3025 
Q 903 2953 641 2809 
L 641 3341 
Q 956 3463 1253 3523 
Q 1550 3584 1831 3584 
Q 2591 3584 2966 3190 
Q 3341 2797 3341 1997 
z
" transform="scale(0.015625)"/>
       <path id="DejaVuSans-74" d="M 1172 4494 
L 1172 3500 
L 2356 3500 
L 2356 3053 
L 1172 3053 
L 1172 1153 
Q 1172 725 1289 603 
Q 1406 481 1766 481 
L 2356 481 
L 2356 0 
L 1766 0 
Q 1100 0 847 248 
Q 594 497 594 1153 
L 594 3053 
L 172 3053 
L 172 3500 
L 594 3500 
L 594 4494 
L 1172 4494 
z
" transform="scale(0.015625)"/>
       <path id="DejaVuSans-72" d="M 2631 2963 
Q 2534 3019 2420 3045 
Q 2306 3072 2169 3072 
Q 1681 3072 1420 2755 
Q 1159 2438 1159 1844 
L 1159 0 
L 581 0 
L 581 3500 
L 1159 3500 
L 1159 2956 
Q 1341 3275 1631 3429 
Q 1922 3584 2338 3584 
Q 2397 3584 2469 3576 
Q 2541 3569 2628 3553 
L 2631 2963 
z
" transform="scale(0.015625)"/>
       <path id="DejaVuSans-69" d="M 603 3500 
L 1178 3500 
L 1178 0 
L 603 0 
L 603 3500 
z
M 603 4863 
L 1178 4863 
L 1178 4134 
L 603 4134 
L 603 4863 
z
" transform="scale(0.015625)"/>
       <path id="DejaVuSans-78" d="M 3513 3500 
L 2247 1797 
L 3578 0 
L 2900 0 
L 1881 1375 
L 863 0 
L 184 0 
L 1544 1831 
L 300 3500 
L 978 3500 
L 1906 2253 
L 2834 3500 
L 3513 3500 
z
" transform="scale(0.015625)"/>
       <path id="DejaVuSans-20" transform="scale(0.015625)"/>
       <path id="DejaVuSans-53" d="M 3425 4513 
L 3425 3897 
Q 3066 4069 2747 4153 
Q 2428 4238 2131 4238 
Q 1616 4238 1336 4038 
Q 1056 3838 1056 3469 
Q 1056 3159 1242 3001 
Q 1428 2844 1947 2747 
L 2328 2669 
Q 3034 2534 3370 2195 
Q 3706 1856 3706 1288 
Q 3706 609 3251 259 
Q 2797 -91 1919 -91 
Q 1588 -91 1214 -16 
Q 841 59 441 206 
L 441 856 
Q 825 641 1194 531 
Q 1563 422 1919 422 
Q 2459 422 2753 634 
Q 3047 847 3047 1241 
Q 3047 1584 2836 1778 
Q 2625 1972 2144 2069 
L 1759 2144 
Q 1053 2284 737 2584 
Q 422 2884 422 3419 
Q 422 4038 858 4394 
Q 1294 4750 2059 4750 
Q 2388 4750 2728 4690 
Q 3069 4631 3425 4513 
z
" transform="scale(0.015625)"/>
       <path id="DejaVuSans-7a" d="M 353 3500 
L 3084 3500 
L 3084 2975 
L 922 459 
L 3084 459 
L 3084 0 
L 275 0 
L 275 525 
L 2438 3041 
L 353 3041 
L 353 3500 
z
" transform="scale(0.015625)"/>
       <path id="DejaVuSans-65" d="M 3597 1894 
L 3597 1613 
L 953 1613 
Q 991 1019 1311 708 
Q 1631 397 2203 397 
Q 2534 397 2845 478 
Q 3156 559 3463 722 
L 3463 178 
Q 3153 47 2828 -22 
Q 2503 -91 2169 -91 
Q 1331 -91 842 396 
Q 353 884 353 1716 
Q 353 2575 817 3079 
Q 1281 3584 2069 3584 
Q 2775 3584 3186 3129 
Q 3597 2675 3597 1894 
z
M 3022 2063 
Q 3016 2534 2758 2815 
Q 2500 3097 2075 3097 
Q 1594 3097 1305 2825 
Q 1016 2553 972 2059 
L 3022 2063 
z
" transform="scale(0.015625)"/>
       <path id="DejaVuSans-28" d="M 1984 4856 
Q 1566 4138 1362 3434 
Q 1159 2731 1159 2009 
Q 1159 1288 1364 580 
Q 1569 -128 1984 -844 
L 1484 -844 
Q 1016 -109 783 600 
Q 550 1309 550 2009 
Q 550 2706 781 3412 
Q 1013 4119 1484 4856 
L 1984 4856 
z
" transform="scale(0.015625)"/>
       <path id="DejaVuSans-4e" d="M 628 4666 
L 1478 4666 
L 3547 763 
L 3547 4666 
L 4159 4666 
L 4159 0 
L 3309 0 
L 1241 3903 
L 1241 0 
L 628 0 
L 628 4666 
z
" transform="scale(0.015625)"/>
       <path id="DejaVuSans-3d" d="M 678 2906 
L 4684 2906 
L 4684 2381 
L 678 2381 
L 678 2906 
z
M 678 1631 
L 4684 1631 
L 4684 1100 
L 678 1100 
L 678 1631 
z
" transform="scale(0.015625)"/>
       <path id="DejaVuSans-29" d="M 513 4856 
L 1013 4856 
Q 1481 4119 1714 3412 
Q 1947 2706 1947 2009 
Q 1947 1309 1714 600 
Q 1481 -109 1013 -844 
L 513 -844 
Q 928 -128 1133 580 
Q 1338 1288 1338 2009 
Q 1338 2731 1133 3434 
Q 928 4138 513 4856 
z
" transform="scale(0.015625)"/>
      </defs>
      <use xlink:href="#DejaVuSans-4d"/>
      <use xlink:href="#DejaVuSans-61" transform="translate(86.279297 0)"/>
      <use xlink:href="#DejaVuSans-74" transform="translate(147.558594 0)"/>
      <use xlink:href="#DejaVuSans-72" transform="translate(186.767578 0)"/>
      <use xlink:href="#DejaVuSans-69" transform="translate(227.880859 0)"/>
      <use xlink:href="#DejaVuSans-78" transform="translate(255.664062 0)"/>
      <use xlink:href="#DejaVuSans-20" transform="translate(314.84375 0)"/>
      <use xlink:href="#DejaVuSans-53" transform="translate(346.630859 0)"/>
      <use xlink:href="#DejaVuSans-69" transform="translate(410.107422 0)"/>
      <use xlink:href="#DejaVuSans-7a" transform="translate(437.890625 0)"/>
      <use xlink:href="#DejaVuSans-65" transform="translate(490.380859 0)"/>
      <use xlink:href="#DejaVuSans-20" transform="translate(551.904297 0)"/>
      <use xlink:href="#DejaVuSans-28" transform="translate(583.691406 0)"/>
      <use xlink:href="#DejaVuSans-4e" transform="translate(622.705078 0)"/>
      <use xlink:href="#DejaVuSans-3d" transform="translate(697.509766 0)"/>
      <use xlink:href="#DejaVuSans-4d" transform="translate(781.298828 0)"/>
      <use xlink:href="#DejaVuSans-29" transform="translate(867.578125 0)"/>
     </g>
    </g>
   </g>
   <g id="matplotlib.axis_2">
    <g id="ytick_1">
     <g id="line2d_9">
      <path d="M 47.41375 180.904067 
L 495.892408 180.904067 
" clip-path="url(#p60e4cfe94c)" style="fill: none; stroke: #b0b0b0; stroke-opacity: 0.3; stroke-width: 0.8; stroke-linecap: square"/>
     </g>
     <g id="line2d_10">
      <defs>
       <path id="m1b3f90ccad" d="M 0 0 
L -3.5 0 
" style="stroke: #000000; stroke-width: 0.8"/>
      </defs>
      <g>
       <use xlink:href="#m1b3f90ccad" x="47.41375" y="180.904067" style="stroke: #000000; stroke-width: 0.8"/>
      </g>
     </g>
     <g id="text_6">
      <!-- $\mathdefault{10^{1}}$ -->
      <g transform="translate(22.81375 184.703286) scale(0.1 -0.1)">
       <defs>
        <path id="DejaVuSans-31" d="M 794 531 
L 1825 531 
L 1825 4091 
L 703 3866 
L 703 4441 
L 1819 4666 
L 2450 4666 
L 2450 531 
L 3481 531 
L 3481 0 
L 794 0 
L 794 531 
z
" transform="scale(0.015625)"/>
        <path id="DejaVuSans-30" d="M 2034 4250 
Q 1547 4250 1301 3770 
Q 1056 3291 1056 2328 
Q 1056 1369 1301 889 
Q 1547 409 2034 409 
Q 2525 409 2770 889 
Q 3016 1369 3016 2328 
Q 3016 3291 2770 3770 
Q 2525 4250 2034 4250 
z
M 2034 4750 
Q 2819 4750 3233 4129 
Q 3647 3509 3647 2328 
Q 3647 1150 3233 529 
Q 2819 -91 2034 -91 
Q 1250 -91 836 529 
Q 422 1150 422 2328 
Q 422 3509 836 4129 
Q 1250 4750 2034 4750 
z
" transform="scale(0.015625)"/>
       </defs>
       <use xlink:href="#DejaVuSans-31" transform="translate(0 0.684375)"/>
       <use xlink:href="#DejaVuSans-30" transform="translate(63.623047 0.684375)"/>
       <use xlink:href="#DejaVuSans-31" transform="translate(128.203125 38.965625) scale(0.7)"/>
      </g>
     </g>
    </g>
    <g id="ytick_2">
     <g id="line2d_11">
      <path d="M 47.41375 32.116687 
L 495.892408 32.116687 
" clip-path="url(#p60e4cfe94c)" style="fill: none; stroke: #b0b0b0; stroke-opacity: 0.3; stroke-width: 0.8; stroke-linecap: square"/>
     </g>
     <g id="line2d_12">
      <g>
       <use xlink:href="#m1b3f90ccad" x="47.41375" y="32.116687" style="stroke: #000000; stroke-width: 0.8"/>
      </g>
     </g>
     <g id="text_7">
      <!-- $\mathdefault{10^{2}}$ -->
      <g transform="translate(22.81375 35.915905) scale(0.1 -0.1)">
       <use xlink:href="#DejaVuSans-31" transform="translate(0 0.765625)"/>
       <use xlink:href="#DejaVuSans-30" transform="translate(63.623047 0.765625)"/>
       <use xlink:href="#DejaVuSans-32" transform="translate(128.203125 39.046875) scale(0.7)"/>
      </g>
     </g>
    </g>
    <g id="ytick_3">
     <g id="line2d_13">
      <defs>
       <path id="m37555120a0" d="M 0 0 
L -2 0 
" style="stroke: #000000; stroke-width: 0.6"/>
      </defs>
      <g>
       <use xlink:href="#m37555120a0" x="47.41375" y="284.901983" style="stroke: #000000; stroke-width: 0.6"/>
      </g>
     </g>
    </g>
    <g id="ytick_4">
     <g id="line2d_14">
      <g>
       <use xlink:href="#m37555120a0" x="47.41375" y="258.701826" style="stroke: #000000; stroke-width: 0.6"/>
      </g>
     </g>
    </g>
    <g id="ytick_5">
     <g id="line2d_15">
      <g>
       <use xlink:href="#m37555120a0" x="47.41375" y="240.112518" style="stroke: #000000; stroke-width: 0.6"/>
      </g>
     </g>
    </g>
    <g id="ytick_6">
     <g id="line2d_16">
      <g>
       <use xlink:href="#m37555120a0" x="47.41375" y="225.693531" style="stroke: #000000; stroke-width: 0.6"/>
      </g>
     </g>
    </g>
    <g id="ytick_7">
     <g id="line2d_17">
      <g>
       <use xlink:href="#m37555120a0" x="47.41375" y="213.912361" style="stroke: #000000; stroke-width: 0.6"/>
      </g>
     </g>
    </g>
    <g id="ytick_8">
     <g id="line2d_18">
      <g>
       <use xlink:href="#m37555120a0" x="47.41375" y="203.951524" style="stroke: #000000; stroke-width: 0.6"/>
      </g>
     </g>
    </g>
    <g id="ytick_9">
     <g id="line2d_19">
      <g>
       <use xlink:href="#m37555120a0" x="47.41375" y="195.323054" style="stroke: #000000; stroke-width: 0.6"/>
      </g>
     </g>
    </g>
    <g id="ytick_10">
     <g id="line2d_20">
      <g>
       <use xlink:href="#m37555120a0" x="47.41375" y="187.712204" style="stroke: #000000; stroke-width: 0.6"/>
      </g>
     </g>
    </g>
    <g id="ytick_11">
     <g id="line2d_21">
      <g>
       <use xlink:href="#m37555120a0" x="47.41375" y="136.114603" style="stroke: #000000; stroke-width: 0.6"/>
      </g>
     </g>
    </g>
    <g id="ytick_12">
     <g id="line2d_22">
      <g>
       <use xlink:href="#m37555120a0" x="47.41375" y="109.914445" style="stroke: #000000; stroke-width: 0.6"/>
      </g>
     </g>
    </g>
    <g id="ytick_13">
     <g id="line2d_23">
      <g>
       <use xlink:href="#m37555120a0" x="47.41375" y="91.325138" style="stroke: #000000; stroke-width: 0.6"/>
      </g>
     </g>
    </g>
    <g id="ytick_14">
     <g id="line2d_24">
      <g>
       <use xlink:href="#m37555120a0" x="47.41375" y="76.906151" style="stroke: #000000; stroke-width: 0.6"/>
      </g>
     </g>
    </g>
    <g id="ytick_15">
     <g id="line2d_25">
      <g>
       <use xlink:href="#m37555120a0" x="47.41375" y="65.124981" style="stroke: #000000; stroke-width: 0.6"/>
      </g>
     </g>
    </g>
    <g id="ytick_16">
     <g id="line2d_26">
      <g>
       <use xlink:href="#m37555120a0" x="47.41375" y="55.164144" style="stroke: #000000; stroke-width: 0.6"/>
      </g>
     </g>
    </g>
    <g id="ytick_17">
     <g id="line2d_27">
      <g>
       <use xlink:href="#m37555120a0" x="47.41375" y="46.535674" style="stroke: #000000; stroke-width: 0.6"/>
      </g>
     </g>
    </g>
    <g id="ytick_18">
     <g id="line2d_28">
      <g>
       <use xlink:href="#m37555120a0" x="47.41375" y="38.924824" style="stroke: #000000; stroke-width: 0.6"/>
      </g>
     </g>
    </g>
    <g id="text_8">
     <!-- Time (ms) -->
     <g transform="translate(16.318125 196.200875) rotate(-90) scale(0.12 -0.12)">
      <defs>
       <path id="DejaVuSans-54" d="M -19 4666 
L 3928 4666 
L 3928 4134 
L 2272 4134 
L 2272 0 
L 1638 0 
L 1638 4134 
L -19 4134 
L -19 4666 
z
" transform="scale(0.015625)"/>
       <path id="DejaVuSans-6d" d="M 3328 2828 
Q 3544 3216 3844 3400 
Q 4144 3584 4550 3584 
Q 5097 3584 5394 3201 
Q 5691 2819 5691 2113 
L 5691 0 
L 5113 0 
L 5113 2094 
Q 5113 2597 4934 2840 
Q 4756 3084 4391 3084 
Q 3944 3084 3684 2787 
Q 3425 2491 3425 1978 
L 3425 0 
L 2847 0 
L 2847 2094 
Q 2847 2600 2669 2842 
Q 2491 3084 2119 3084 
Q 1678 3084 1418 2786 
Q 1159 2488 1159 1978 
L 1159 0 
L 581 0 
L 581 3500 
L 1159 3500 
L 1159 2956 
Q 1356 3278 1631 3431 
Q 1906 3584 2284 3584 
Q 2666 3584 2933 3390 
Q 3200 3197 3328 2828 
z
" transform="scale(0.015625)"/>
       <path id="DejaVuSans-73" d="M 2834 3397 
L 2834 2853 
Q 2591 2978 2328 3040 
Q 2066 3103 1784 3103 
Q 1356 3103 1142 2972 
Q 928 2841 928 2578 
Q 928 2378 1081 2264 
Q 1234 2150 1697 2047 
L 1894 2003 
Q 2506 1872 2764 1633 
Q 3022 1394 3022 966 
Q 3022 478 2636 193 
Q 2250 -91 1575 -91 
Q 1294 -91 989 -36 
Q 684 19 347 128 
L 347 722 
Q 666 556 975 473 
Q 1284 391 1588 391 
Q 1994 391 2212 530 
Q 2431 669 2431 922 
Q 2431 1156 2273 1281 
Q 2116 1406 1581 1522 
L 1381 1569 
Q 847 1681 609 1914 
Q 372 2147 372 2553 
Q 372 3047 722 3315 
Q 1072 3584 1716 3584 
Q 2034 3584 2315 3537 
Q 2597 3491 2834 3397 
z
" transform="scale(0.015625)"/>
      </defs>
      <use xlink:href="#DejaVuSans-54"/>
      <use xlink:href="#DejaVuSans-69" transform="translate(57.958984 0)"/>
      <use xlink:href="#DejaVuSans-6d" transform="translate(85.742188 0)"/>
      <use xlink:href="#DejaVuSans-65" transform="translate(183.154297 0)"/>
      <use xlink:href="#DejaVuSans-20" transform="translate(244.677734 0)"/>
      <use xlink:href="#DejaVuSans-28" transform="translate(276.464844 0)"/>
      <use xlink:href="#DejaVuSans-6d" transform="translate(315.478516 0)"/>
      <use xlink:href="#DejaVuSans-73" transform="translate(412.890625 0)"/>
      <use xlink:href="#DejaVuSans-29" transform="translate(464.990234 0)"/>
     </g>
    </g>
   </g>
   <g id="line2d_29">
    <path d="M 67.799144 189.885015 
L 203.701767 185.830101 
L 339.604391 175.417427 
L 475.507014 147.032945 
" clip-path="url(#p60e4cfe94c)" style="fill: none; stroke: #1f77b4; stroke-width: 2; stroke-linecap: square"/>
    <defs>
     <path id="mc0482fa228" d="M 0 4 
C 1.060812 4 2.078319 3.578535 2.828427 2.828427 
C 3.578535 2.078319 4 1.060812 4 0 
C 4 -1.060812 3.578535 -2.078319 2.828427 -2.828427 
C 2.078319 -3.578535 1.060812 -4 0 -4 
C -1.060812 -4 -2.078319 -3.578535 -2.828427 -2.828427 
C -3.578535 -2.078319 -4 -1.060812 -4 0 
C -4 1.060812 -3.578535 2.078319 -2.828427 2.828427 
C -2.078319 3.578535 -1.060812 4 0 4 
z
" style="stroke: #1f77b4"/>
    </defs>
    <g clip-path="url(#p60e4cfe94c)">
     <use xlink:href="#mc0482fa228" x="67.799144" y="189.885015" style="fill: #1f77b4; stroke: #1f77b4"/>
     <use xlink:href="#mc0482fa228" x="203.701767" y="185.830101" style="fill: #1f77b4; stroke: #1f77b4"/>
     <use xlink:href="#mc0482fa228" x="339.604391" y="175.417427" style="fill: #1f77b4; stroke: #1f77b4"/>
     <use xlink:href="#mc0482fa228" x="475.507014" y="147.032945" style="fill: #1f77b4; stroke: #1f77b4"/>
    </g>
   </g>
   <g id="line2d_30">
    <path d="M 67.799144 38.065141 
L 203.701767 37.910143 
L 339.604391 36.758176 
L 475.507014 37.358343 
" clip-path="url(#p60e4cfe94c)" style="fill: none; stroke: #ff7f0e; stroke-width: 2; stroke-linecap: square"/>
    <defs>
     <path id="me9dbefd02a" d="M 0 4 
C 1.060812 4 2.078319 3.578535 2.828427 2.828427 
C 3.578535 2.078319 4 1.060812 4 0 
C 4 -1.060812 3.578535 -2.078319 2.828427 -2.828427 
C 2.078319 -3.578535 1.060812 -4 0 -4 
C -1.060812 -4 -2.078319 -3.578535 -2.828427 -2.828427 
C -3.578535 -2.078319 -4 -1.060812 -4 0 
C -4 1.060812 -3.578535 2.078319 -2.828427 2.828427 
C -2.078319 3.578535 -1.060812 4 0 4 
z
" style="stroke: #ff7f0e"/>
    </defs>
    <g clip-path="url(#p60e4cfe94c)">
     <use xlink:href="#me9dbefd02a" x="67.799144" y="38.065141" style="fill: #ff7f0e; stroke: #ff7f0e"/>
     <use xlink:href="#me9dbefd02a" x="203.701767" y="37.910143" style="fill: #ff7f0e; stroke: #ff7f0e"/>
     <use xlink:href="#me9dbefd02a" x="339.604391" y="36.758176" style="fill: #ff7f0e; stroke: #ff7f0e"/>
     <use xlink:href="#me9dbefd02a" x="475.507014" y="37.358343" style="fill: #ff7f0e; stroke: #ff7f0e"/>
    </g>
   </g>
   <g id="line2d_31">
    <path d="M 67.799144 208.157056 
L 203.701767 229.616448 
L 339.604391 235.853068 
L 475.507014 253.182104 
" clip-path="url(#p60e4cfe94c)" style="fill: none; stroke: #2ca02c; stroke-width: 2; stroke-linecap: square"/>
    <defs>
     <path id="m425b7d0e61" d="M 0 4 
C 1.060812 4 2.078319 3.578535 2.828427 2.828427 
C 3.578535 2.078319 4 1.060812 4 0 
C 4 -1.060812 3.578535 -2.078319 2.828427 -2.828427 
C 2.078319 -3.578535 1.060812 -4 0 -4 
C -1.060812 -4 -2.078319 -3.578535 -2.828427 -2.828427 
C -3.578535 -2.078319 -4 -1.060812 -4 0 
C -4 1.060812 -3.578535 2.078319 -2.828427 2.828427 
C -2.078319 3.578535 -1.060812 4 0 4 
z
" style="stroke: #2ca02c"/>
    </defs>
    <g clip-path="url(#p60e4cfe94c)">
     <use xlink:href="#m425b7d0e61" x="67.799144" y="208.157056" style="fill: #2ca02c; stroke: #2ca02c"/>
     <use xlink:href="#m425b7d0e61" x="203.701767" y="229.616448" style="fill: #2ca02c; stroke: #2ca02c"/>
     <use xlink:href="#m425b7d0e61" x="339.604391" y="235.853068" style="fill: #2ca02c; stroke: #2ca02c"/>
     <use xlink:href="#m425b7d0e61" x="475.507014" y="253.182104" style="fill: #2ca02c; stroke: #2ca02c"/>
    </g>
   </g>
   <g id="line2d_32">
    <path d="M 67.799144 236.539002 
L 203.701767 268.663336 
L 339.604391 294.076315 
L 475.507014 295.165449 
" clip-path="url(#p60e4cfe94c)" style="fill: none; stroke: #d62728; stroke-width: 2; stroke-linecap: square"/>
    <defs>
     <path id="m200d922314" d="M 0 4 
C 1.060812 4 2.078319 3.578535 2.828427 2.828427 
C 3.578535 2.078319 4 1.060812 4 0 
C 4 -1.060812 3.578535 -2.078319 2.828427 -2.828427 
C 2.078319 -3.578535 1.060812 -4 0 -4 
C -1.060812 -4 -2.078319 -3.578535 -2.828427 -2.828427 
C -3.578535 -2.078319 -4 -1.060812 -4 0 
C -4 1.060812 -3.578535 2.078319 -2.828427 2.828427 
C -2.078319 3.578535 -1.060812 4 0 4 
z
" style="stroke: #d62728"/>
    </defs>
    <g clip-path="url(#p60e4cfe94c)">
     <use xlink:href="#m200d922314" x="67.799144" y="236.539002" style="fill: #d62728; stroke: #d62728"/>
     <use xlink:href="#m200d922314" x="203.701767" y="268.663336" style="fill: #d62728; stroke: #d62728"/>
     <use xlink:href="#m200d922314" x="339.604391" y="294.076315" style="fill: #d62728; stroke: #d62728"/>
     <use xlink:href="#m200d922314" x="475.507014" y="295.165449" style="fill: #d62728; stroke: #d62728"/>
    </g>
   </g>
   <g id="patch_3">
    <path d="M 47.41375 308.085812 
L 47.41375 23.837812 
" style="fill: none; stroke: #000000; stroke-width: 0.8; stroke-linejoin: miter; stroke-linecap: square"/>
   </g>
   <g id="patch_4">
    <path d="M 495.892408 308.085812 
L 495.892408 23.837812 
" style="fill: none; stroke: #000000; stroke-width: 0.8; stroke-linejoin: miter; stroke-linecap: square"/>
   </g>
   <g id="patch_5">
    <path d="M 47.41375 308.085812 
L 495.892408 308.085812 
" style="fill: none; stroke: #000000; stroke-width: 0.8; stroke-linejoin: miter; stroke-linecap: square"/>
   </g>
   <g id="patch_6">
    <path d="M 47.41375 23.837812 
L 495.892408 23.837812 
" style="fill: none; stroke: #000000; stroke-width: 0.8; stroke-linejoin: miter; stroke-linecap: square"/>
   </g>
   <g id="text_9">
    <!-- Sinkhorn Performance Comparison (Batch=8) -->
    <g transform="translate(112.020266 17.837812) scale(0.14 -0.14)">
     <defs>
      <path id="DejaVuSans-6e" d="M 3513 2113 
L 3513 0 
L 2938 0 
L 2938 2094 
Q 2938 2591 2744 2837 
Q 2550 3084 2163 3084 
Q 1697 3084 1428 2787 
Q 1159 2491 1159 1978 
L 1159 0 
L 581 0 
L 581 3500 
L 1159 3500 
L 1159 2956 
Q 1366 3272 1645 3428 
Q 1925 3584 2291 3584 
Q 2894 3584 3203 3211 
Q 3513 2838 3513 2113 
z
" transform="scale(0.015625)"/>
      <path id="DejaVuSans-6b" d="M 581 4863 
L 1159 4863 
L 1159 1991 
L 2875 3500 
L 3609 3500 
L 1753 1863 
L 3688 0 
L 2938 0 
L 1159 1709 
L 1159 0 
L 581 0 
L 581 4863 
z
" transform="scale(0.015625)"/>
      <path id="DejaVuSans-68" d="M 3513 2113 
L 3513 0 
L 2938 0 
L 2938 2094 
Q 2938 2591 2744 2837 
Q 2550 3084 2163 3084 
Q 1697 3084 1428 2787 
Q 1159 2491 1159 1978 
L 1159 0 
L 581 0 
L 581 4863 
L 1159 4863 
L 1159 2956 
Q 1366 3272 1645 3428 
Q 1925 3584 2291 3584 
Q 2894 3584 3203 3211 
Q 3513 2838 3513 2113 
z
" transform="scale(0.015625)"/>
      <path id="DejaVuSans-6f" d="M 1959 3097 
Q 1497 3097 1228 2736 
Q 959 2375 959 1747 
Q 959 1119 1226 758 
Q 1494 397 1959 397 
Q 2419 397 2687 759 
Q 2956 1122 2956 1747 
Q 2956 2369 2687 2733 
Q 2419 3097 1959 3097 
z
M 1959 3584 
Q 2709 3584 3137 3096 
Q 3566 2609 3566 1747 
Q 3566 888 3137 398 
Q 2709 -91 1959 -91 
Q 1206 -91 779 398 
Q 353 888 353 1747 
Q 353 2609 779 3096 
Q 1206 3584 1959 3584 
z
" transform="scale(0.015625)"/>
      <path id="DejaVuSans-50" d="M 1259 4147 
L 1259 2394 
L 2053 2394 
Q 2494 2394 2734 2622 
Q 2975 2850 2975 3272 
Q 2975 3691 2734 3919 
Q 2494 4147 2053 4147 
L 1259 4147 
z
M 628 4666 
L 2053 4666 
Q 2838 4666 3239 4311 
Q 3641 3956 3641 3272 
Q 3641 2581 3239 2228 
Q 2838 1875 2053 1875 
L 1259 1875 
L 1259 0 
L 628 0 
L 628 4666 
z
" transform="scale(0.015625)"/>
      <path id="DejaVuSans-66" d="M 2375 4863 
L 2375 4384 
L 1825 4384 
Q 1516 4384 1395 4259 
Q 1275 4134 1275 3809 
L 1275 3500 
L 2222 3500 
L 2222 3053 
L 1275 3053 
L 1275 0 
L 697 0 
L 697 3053 
L 147 3053 
L 147 3500 
L 697 3500 
L 697 3744 
Q 697 4328 969 4595 
Q 1241 4863 1831 4863 
L 2375 4863 
z
" transform="scale(0.015625)"/>
      <path id="DejaVuSans-63" d="M 3122 3366 
L 3122 2828 
Q 2878 2963 2633 3030 
Q 2388 3097 2138 3097 
Q 1578 3097 1268 2742 
Q 959 2388 959 1747 
Q 959 1106 1268 751 
Q 1578 397 2138 397 
Q 2388 397 2633 464 
Q 2878 531 3122 666 
L 3122 134 
Q 2881 22 2623 -34 
Q 2366 -91 2075 -91 
Q 1284 -91 818 406 
Q 353 903 353 1747 
Q 353 2603 823 3093 
Q 1294 3584 2113 3584 
Q 2378 3584 2631 3529 
Q 2884 3475 3122 3366 
z
" transform="scale(0.015625)"/>
      <path id="DejaVuSans-43" d="M 4122 4306 
L 4122 3641 
Q 3803 3938 3442 4084 
Q 3081 4231 2675 4231 
Q 1875 4231 1450 3742 
Q 1025 3253 1025 2328 
Q 1025 1406 1450 917 
Q 1875 428 2675 428 
Q 3081 428 3442 575 
Q 3803 722 4122 1019 
L 4122 359 
Q 3791 134 3420 21 
Q 3050 -91 2638 -91 
Q 1578 -91 968 557 
Q 359 1206 359 2328 
Q 359 3453 968 4101 
Q 1578 4750 2638 4750 
Q 3056 4750 3426 4639 
Q 3797 4528 4122 4306 
z
" transform="scale(0.015625)"/>
      <path id="DejaVuSans-70" d="M 1159 525 
L 1159 -1331 
L 581 -1331 
L 581 3500 
L 1159 3500 
L 1159 2969 
Q 1341 3281 1617 3432 
Q 1894 3584 2278 3584 
Q 2916 3584 3314 3078 
Q 3713 2572 3713 1747 
Q 3713 922 3314 415 
Q 2916 -91 2278 -91 
Q 1894 -91 1617 61 
Q 1341 213 1159 525 
z
M 3116 1747 
Q 3116 2381 2855 2742 
Q 2594 3103 2138 3103 
Q 1681 3103 1420 2742 
Q 1159 2381 1159 1747 
Q 1159 1113 1420 752 
Q 1681 391 2138 391 
Q 2594 391 2855 752 
Q 3116 1113 3116 1747 
z
" transform="scale(0.015625)"/>
      <path id="DejaVuSans-42" d="M 1259 2228 
L 1259 519 
L 2272 519 
Q 2781 519 3026 730 
Q 3272 941 3272 1375 
Q 3272 1813 3026 2020 
Q 2781 2228 2272 2228 
L 1259 2228 
z
M 1259 4147 
L 1259 2741 
L 2194 2741 
Q 2656 2741 2882 2914 
Q 3109 3088 3109 3444 
Q 3109 3797 2882 3972 
Q 2656 4147 2194 4147 
L 1259 4147 
z
M 628 4666 
L 2241 4666 
Q 2963 4666 3353 4366 
Q 3744 4066 3744 3513 
Q 3744 3084 3544 2831 
Q 3344 2578 2956 2516 
Q 3422 2416 3680 2098 
Q 3938 1781 3938 1306 
Q 3938 681 3513 340 
Q 3088 0 2303 0 
L 628 0 
L 628 4666 
z
" transform="scale(0.015625)"/>
     </defs>
     <use xlink:href="#DejaVuSans-53"/>
     <use xlink:href="#DejaVuSans-69" transform="translate(63.476562 0)"/>
     <use xlink:href="#DejaVuSans-6e" transform="translate(91.259766 0)"/>
     <use xlink:href="#DejaVuSans-6b" transform="translate(154.638672 0)"/>
     <use xlink:href="#DejaVuSans-68" transform="translate(212.548828 0)"/>
     <use xlink:href="#DejaVuSans-6f" transform="translate(275.927734 0)"/>
     <use xlink:href="#DejaVuSans-72" transform="translate(337.109375 0)"/>
     <use xlink:href="#DejaVuSans-6e" transform="translate(376.472656 0)"/>
     <use xlink:href="#DejaVuSans-20" transform="translate(439.851562 0)"/>
     <use xlink:href="#DejaVuSans-50" transform="translate(471.638672 0)"/>
     <use xlink:href="#DejaVuSans-65" transform="translate(528.316406 0)"/>
     <use xlink:href="#DejaVuSans-72" transform="translate(589.839844 0)"/>
     <use xlink:href="#DejaVuSans-66" transform="translate(630.953125 0)"/>
     <use xlink:href="#DejaVuSans-6f" transform="translate(666.158203 0)"/>
     <use xlink:href="#DejaVuSans-72" transform="translate(727.339844 0)"/>
     <use xlink:href="#DejaVuSans-6d" transform="translate(766.703125 0)"/>
     <use xlink:href="#DejaVuSans-61" transform="translate(864.115234 0)"/>
     <use xlink:href="#DejaVuSans-6e" transform="translate(925.394531 0)"/>
     <use xlink:href="#DejaVuSans-63" transform="translate(988.773438 0)"/>
     <use xlink:href="#DejaVuSans-65" transform="translate(1043.753906 0)"/>
     <use xlink:href="#DejaVuSans-20" transform="translate(1105.277344 0)"/>
     <use xlink:href="#DejaVuSans-43" transform="translate(1137.064453 0)"/>
     <use xlink:href="#DejaVuSans-6f" transform="translate(1206.888672 0)"/>
     <use xlink:href="#DejaVuSans-6d" transform="translate(1268.070312 0)"/>
     <use xlink:href="#DejaVuSans-70" transform="translate(1365.482422 0)"/>
     <use xlink:href="#DejaVuSans-61" transform="translate(1428.958984 0)"/>
     <use xlink:href="#DejaVuSans-72" transform="translate(1490.238281 0)"/>
     <use xlink:href="#DejaVuSans-69" transform="translate(1531.351562 0)"/>
     <use xlink:href="#DejaVuSans-73" transform="translate(1559.134766 0)"/>
     <use xlink:href="#DejaVuSans-6f" transform="translate(1611.234375 0)"/>
     <use xlink:href="#DejaVuSans-6e" transform="translate(1672.416016 0)"/>
     <use xlink:href="#DejaVuSans-20" transform="translate(1735.794922 0)"/>
     <use xlink:href="#DejaVuSans-28" transform="translate(1767.582031 0)"/>
     <use xlink:href="#DejaVuSans-42" transform="translate(1806.595703 0)"/>
     <use xlink:href="#DejaVuSans-61" transform="translate(1875.199219 0)"/>
     <use xlink:href="#DejaVuSans-74" transform="translate(1936.478516 0)"/>
     <use xlink:href="#DejaVuSans-63" transform="translate(1975.6875 0)"/>
     <use xlink:href="#DejaVuSans-68" transform="translate(2030.667969 0)"/>
     <use xlink:href="#DejaVuSans-3d" transform="translate(2094.046875 0)"/>
     <use xlink:href="#DejaVuSans-38" transform="translate(2177.835938 0)"/>
     <use xlink:href="#DejaVuSans-29" transform="translate(2241.458984 0)"/>
    </g>
   </g>
   <g id="legend_1">
    <g id="patch_7">
     <path d="M 54.41375 90.550312 
L 205.884063 90.550312 
Q 207.884063 90.550312 207.884063 88.550312 
L 207.884063 30.837812 
Q 207.884063 28.837812 205.884063 28.837812 
L 54.41375 28.837812 
Q 52.41375 28.837812 52.41375 30.837812 
L 52.41375 88.550312 
Q 52.41375 90.550312 54.41375 90.550312 
z
" style="fill: #ffffff; opacity: 0.8; stroke: #cccccc; stroke-linejoin: miter"/>
    </g>
    <g id="line2d_33">
     <path d="M 56.41375 36.93625 
L 66.41375 36.93625 
L 76.41375 36.93625 
" style="fill: none; stroke: #1f77b4; stroke-width: 2; stroke-linecap: square"/>
     <g>
      <use xlink:href="#mc0482fa228" x="66.41375" y="36.93625" style="fill: #1f77b4; stroke: #1f77b4"/>
     </g>
    </g>
    <g id="text_10">
     <!-- pot(numpy) -->
     <g transform="translate(84.41375 40.43625) scale(0.1 -0.1)">
      <defs>
       <path id="DejaVuSans-75" d="M 544 1381 
L 544 3500 
L 1119 3500 
L 1119 1403 
Q 1119 906 1312 657 
Q 1506 409 1894 409 
Q 2359 409 2629 706 
Q 2900 1003 2900 1516 
L 2900 3500 
L 3475 3500 
L 3475 0 
L 2900 0 
L 2900 538 
Q 2691 219 2414 64 
Q 2138 -91 1772 -91 
Q 1169 -91 856 284 
Q 544 659 544 1381 
z
M 1991 3584 
L 1991 3584 
z
" transform="scale(0.015625)"/>
       <path id="DejaVuSans-79" d="M 2059 -325 
Q 1816 -950 1584 -1140 
Q 1353 -1331 966 -1331 
L 506 -1331 
L 506 -850 
L 844 -850 
Q 1081 -850 1212 -737 
Q 1344 -625 1503 -206 
L 1606 56 
L 191 3500 
L 800 3500 
L 1894 763 
L 2988 3500 
L 3597 3500 
L 2059 -325 
z
" transform="scale(0.015625)"/>
      </defs>
      <use xlink:href="#DejaVuSans-70"/>
      <use xlink:href="#DejaVuSans-6f" transform="translate(63.476562 0)"/>
      <use xlink:href="#DejaVuSans-74" transform="translate(124.658203 0)"/>
      <use xlink:href="#DejaVuSans-28" transform="translate(163.867188 0)"/>
      <use xlink:href="#DejaVuSans-6e" transform="translate(202.880859 0)"/>
      <use xlink:href="#DejaVuSans-75" transform="translate(266.259766 0)"/>
      <use xlink:href="#DejaVuSans-6d" transform="translate(329.638672 0)"/>
      <use xlink:href="#DejaVuSans-70" transform="translate(427.050781 0)"/>
      <use xlink:href="#DejaVuSans-79" transform="translate(490.527344 0)"/>
      <use xlink:href="#DejaVuSans-29" transform="translate(549.707031 0)"/>
     </g>
    </g>
    <g id="line2d_34">
     <path d="M 56.41375 51.614375 
L 66.41375 51.614375 
L 76.41375 51.614375 
" style="fill: none; stroke: #ff7f0e; stroke-width: 2; stroke-linecap: square"/>
     <g>
      <use xlink:href="#me9dbefd02a" x="66.41375" y="51.614375" style="fill: #ff7f0e; stroke: #ff7f0e"/>
     </g>
    </g>
    <g id="text_11">
     <!-- pot-gpu(torch-cuda) -->
     <g transform="translate(84.41375 55.114375) scale(0.1 -0.1)">
      <defs>
       <path id="DejaVuSans-2d" d="M 313 2009 
L 1997 2009 
L 1997 1497 
L 313 1497 
L 313 2009 
z
" transform="scale(0.015625)"/>
       <path id="DejaVuSans-67" d="M 2906 1791 
Q 2906 2416 2648 2759 
Q 2391 3103 1925 3103 
Q 1463 3103 1205 2759 
Q 947 2416 947 1791 
Q 947 1169 1205 825 
Q 1463 481 1925 481 
Q 2391 481 2648 825 
Q 2906 1169 2906 1791 
z
M 3481 434 
Q 3481 -459 3084 -895 
Q 2688 -1331 1869 -1331 
Q 1566 -1331 1297 -1286 
Q 1028 -1241 775 -1147 
L 775 -588 
Q 1028 -725 1275 -790 
Q 1522 -856 1778 -856 
Q 2344 -856 2625 -561 
Q 2906 -266 2906 331 
L 2906 616 
Q 2728 306 2450 153 
Q 2172 0 1784 0 
Q 1141 0 747 490 
Q 353 981 353 1791 
Q 353 2603 747 3093 
Q 1141 3584 1784 3584 
Q 2172 3584 2450 3431 
Q 2728 3278 2906 2969 
L 2906 3500 
L 3481 3500 
L 3481 434 
z
" transform="scale(0.015625)"/>
       <path id="DejaVuSans-64" d="M 2906 2969 
L 2906 4863 
L 3481 4863 
L 3481 0 
L 2906 0 
L 2906 525 
Q 2725 213 2448 61 
Q 2172 -91 1784 -91 
Q 1150 -91 751 415 
Q 353 922 353 1747 
Q 353 2572 751 3078 
Q 1150 3584 1784 3584 
Q 2172 3584 2448 3432 
Q 2725 3281 2906 2969 
z
M 947 1747 
Q 947 1113 1208 752 
Q 1469 391 1925 391 
Q 2381 391 2643 752 
Q 2906 1113 2906 1747 
Q 2906 2381 2643 2742 
Q 2381 3103 1925 3103 
Q 1469 3103 1208 2742 
Q 947 2381 947 1747 
z
" transform="scale(0.015625)"/>
      </defs>
      <use xlink:href="#DejaVuSans-70"/>
      <use xlink:href="#DejaVuSans-6f" transform="translate(63.476562 0)"/>
      <use xlink:href="#DejaVuSans-74" transform="translate(124.658203 0)"/>
      <use xlink:href="#DejaVuSans-2d" transform="translate(163.867188 0)"/>
      <use xlink:href="#DejaVuSans-67" transform="translate(199.951172 0)"/>
      <use xlink:href="#DejaVuSans-70" transform="translate(263.427734 0)"/>
      <use xlink:href="#DejaVuSans-75" transform="translate(326.904297 0)"/>
      <use xlink:href="#DejaVuSans-28" transform="translate(390.283203 0)"/>
      <use xlink:href="#DejaVuSans-74" transform="translate(429.296875 0)"/>
      <use xlink:href="#DejaVuSans-6f" transform="translate(468.505859 0)"/>
      <use xlink:href="#DejaVuSans-72" transform="translate(529.6875 0)"/>
      <use xlink:href="#DejaVuSans-63" transform="translate(568.550781 0)"/>
      <use xlink:href="#DejaVuSans-68" transform="translate(623.53125 0)"/>
      <use xlink:href="#DejaVuSans-2d" transform="translate(686.910156 0)"/>
      <use xlink:href="#DejaVuSans-63" transform="translate(722.994141 0)"/>
      <use xlink:href="#DejaVuSans-75" transform="translate(777.974609 0)"/>
      <use xlink:href="#DejaVuSans-64" transform="translate(841.353516 0)"/>
      <use xlink:href="#DejaVuSans-61" transform="translate(904.830078 0)"/>
      <use xlink:href="#DejaVuSans-29" transform="translate(966.109375 0)"/>
     </g>
    </g>
    <g id="line2d_35">
     <path d="M 56.41375 66.2925 
L 66.41375 66.2925 
L 76.41375 66.2925 
" style="fill: none; stroke: #2ca02c; stroke-width: 2; stroke-linecap: square"/>
     <g>
      <use xlink:href="#m425b7d0e61" x="66.41375" y="66.2925" style="fill: #2ca02c; stroke: #2ca02c"/>
     </g>
    </g>
    <g id="text_12">
     <!-- sinkhorn-triton(pytorch) -->
     <g transform="translate(84.41375 69.7925) scale(0.1 -0.1)">
      <use xlink:href="#DejaVuSans-73"/>
      <use xlink:href="#DejaVuSans-69" transform="translate(52.099609 0)"/>
      <use xlink:href="#DejaVuSans-6e" transform="translate(79.882812 0)"/>
      <use xlink:href="#DejaVuSans-6b" transform="translate(143.261719 0)"/>
      <use xlink:href="#DejaVuSans-68" transform="translate(201.171875 0)"/>
      <use xlink:href="#DejaVuSans-6f" transform="translate(264.550781 0)"/>
      <use xlink:href="#DejaVuSans-72" transform="translate(325.732422 0)"/>
      <use xlink:href="#DejaVuSans-6e" transform="translate(365.095703 0)"/>
      <use xlink:href="#DejaVuSans-2d" transform="translate(428.474609 0)"/>
      <use xlink:href="#DejaVuSans-74" transform="translate(464.558594 0)"/>
      <use xlink:href="#DejaVuSans-72" transform="translate(503.767578 0)"/>
      <use xlink:href="#DejaVuSans-69" transform="translate(544.880859 0)"/>
      <use xlink:href="#DejaVuSans-74" transform="translate(572.664062 0)"/>
      <use xlink:href="#DejaVuSans-6f" transform="translate(611.873047 0)"/>
      <use xlink:href="#DejaVuSans-6e" transform="translate(673.054688 0)"/>
      <use xlink:href="#DejaVuSans-28" transform="translate(736.433594 0)"/>
      <use xlink:href="#DejaVuSans-70" transform="translate(775.447266 0)"/>
      <use xlink:href="#DejaVuSans-79" transform="translate(838.923828 0)"/>
      <use xlink:href="#DejaVuSans-74" transform="translate(898.103516 0)"/>
      <use xlink:href="#DejaVuSans-6f" transform="translate(937.3125 0)"/>
      <use xlink:href="#DejaVuSans-72" transform="translate(998.494141 0)"/>
      <use xlink:href="#DejaVuSans-63" transform="translate(1037.357422 0)"/>
      <use xlink:href="#DejaVuSans-68" transform="translate(1092.337891 0)"/>
      <use xlink:href="#DejaVuSans-29" transform="translate(1155.716797 0)"/>
     </g>
    </g>
    <g id="line2d_36">
     <path d="M 56.41375 80.970625 
L 66.41375 80.970625 
L 76.41375 80.970625 
" style="fill: none; stroke: #d62728; stroke-width: 2; stroke-linecap: square"/>
     <g>
      <use xlink:href="#m200d922314" x="66.41375" y="80.970625" style="fill: #d62728; stroke: #d62728"/>
     </g>
    </g>
    <g id="text_13">
     <!-- sinkhorn-triton(triton) -->
     <g transform="translate(84.41375 84.470625) scale(0.1 -0.1)">
      <use xlink:href="#DejaVuSans-73"/>
      <use xlink:href="#DejaVuSans-69" transform="translate(52.099609 0)"/>
      <use xlink:href="#DejaVuSans-6e" transform="translate(79.882812 0)"/>
      <use xlink:href="#DejaVuSans-6b" transform="translate(143.261719 0)"/>
      <use xlink:href="#DejaVuSans-68" transform="translate(201.171875 0)"/>
      <use xlink:href="#DejaVuSans-6f" transform="translate(264.550781 0)"/>
      <use xlink:href="#DejaVuSans-72" transform="translate(325.732422 0)"/>
      <use xlink:href="#DejaVuSans-6e" transform="translate(365.095703 0)"/>
      <use xlink:href="#DejaVuSans-2d" transform="translate(428.474609 0)"/>
      <use xlink:href="#DejaVuSans-74" transform="translate(464.558594 0)"/>
      <use xlink:href="#DejaVuSans-72" transform="translate(503.767578 0)"/>
      <use xlink:href="#DejaVuSans-69" transform="translate(544.880859 0)"/>
      <use xlink:href="#DejaVuSans-74" transform="translate(572.664062 0)"/>
      <use xlink:href="#DejaVuSans-6f" transform="translate(611.873047 0)"/>
      <use xlink:href="#DejaVuSans-6e" transform="translate(673.054688 0)"/>
      <use xlink:href="#DejaVuSans-28" transform="translate(736.433594 0)"/>
      <use xlink:href="#DejaVuSans-74" transform="translate(775.447266 0)"/>
      <use xlink:href="#DejaVuSans-72" transform="translate(814.65625 0)"/>
      <use xlink:href="#DejaVuSans-69" transform="translate(855.769531 0)"/>
      <use xlink:href="#DejaVuSans-74" transform="translate(883.552734 0)"/>
      <use xlink:href="#DejaVuSans-6f" transform="translate(922.761719 0)"/>
      <use xlink:href="#DejaVuSans-6e" transform="translate(983.943359 0)"/>
      <use xlink:href="#DejaVuSans-29" transform="translate(1047.322266 0)"/>
     </g>
    </g>
   </g>
  </g>
  <g id="axes_2">
   <g id="patch_8">
    <path d="M 543.342408 308.085812 
L 991.821065 308.085812 
L 991.821065 23.837812 
L 543.342408 23.837812 
z
" style="fill: #ffffff"/>
   </g>
   <g id="matplotlib.axis_3">
    <g id="xtick_5">
     <g id="line2d_37">
      <path d="M 563.727801 308.085812 
L 563.727801 23.837812 
" clip-path="url(#p17e95831e3)" style="fill: none; stroke: #b0b0b0; stroke-opacity: 0.3; stroke-width: 0.8; stroke-linecap: square"/>
     </g>
     <g id="line2d_38">
      <g>
       <use xlink:href="#mc109519981" x="563.727801" y="308.085812" style="stroke: #000000; stroke-width: 0.8"/>
      </g>
     </g>
     <g id="text_14">
      <!-- $\mathdefault{2^{5}}$ -->
      <g transform="translate(558.127801 322.68425) scale(0.1 -0.1)">
       <use xlink:href="#DejaVuSans-32" transform="translate(0 0.684375)"/>
       <use xlink:href="#DejaVuSans-35" transform="translate(64.580078 38.965625) scale(0.7)"/>
      </g>
     </g>
    </g>
    <g id="xtick_6">
     <g id="line2d_39">
      <path d="M 699.630425 308.085812 
L 699.630425 23.837812 
" clip-path="url(#p17e95831e3)" style="fill: none; stroke: #b0b0b0; stroke-opacity: 0.3; stroke-width: 0.8; stroke-linecap: square"/>
     </g>
     <g id="line2d_40">
      <g>
       <use xlink:href="#mc109519981" x="699.630425" y="308.085812" style="stroke: #000000; stroke-width: 0.8"/>
      </g>
     </g>
     <g id="text_15">
      <!-- $\mathdefault{2^{6}}$ -->
      <g transform="translate(694.030425 322.68425) scale(0.1 -0.1)">
       <use xlink:href="#DejaVuSans-32" transform="translate(0 0.765625)"/>
       <use xlink:href="#DejaVuSans-36" transform="translate(64.580078 39.046875) scale(0.7)"/>
      </g>
     </g>
    </g>
    <g id="xtick_7">
     <g id="line2d_41">
      <path d="M 835.533048 308.085812 
L 835.533048 23.837812 
" clip-path="url(#p17e95831e3)" style="fill: none; stroke: #b0b0b0; stroke-opacity: 0.3; stroke-width: 0.8; stroke-linecap: square"/>
     </g>
     <g id="line2d_42">
      <g>
       <use xlink:href="#mc109519981" x="835.533048" y="308.085812" style="stroke: #000000; stroke-width: 0.8"/>
      </g>
     </g>
     <g id="text_16">
      <!-- $\mathdefault{2^{7}}$ -->
      <g transform="translate(829.933048 322.68425) scale(0.1 -0.1)">
       <use xlink:href="#DejaVuSans-32" transform="translate(0 0.684375)"/>
       <use xlink:href="#DejaVuSans-37" transform="translate(64.580078 38.965625) scale(0.7)"/>
      </g>
     </g>
    </g>
    <g id="xtick_8">
     <g id="line2d_43">
      <path d="M 971.435672 308.085812 
L 971.435672 23.837812 
" clip-path="url(#p17e95831e3)" style="fill: none; stroke: #b0b0b0; stroke-opacity: 0.3; stroke-width: 0.8; stroke-linecap: square"/>
     </g>
     <g id="line2d_44">
      <g>
       <use xlink:href="#mc109519981" x="971.435672" y="308.085812" style="stroke: #000000; stroke-width: 0.8"/>
      </g>
     </g>
     <g id="text_17">
      <!-- $\mathdefault{2^{8}}$ -->
      <g transform="translate(965.835672 322.68425) scale(0.1 -0.1)">
       <use xlink:href="#DejaVuSans-32" transform="translate(0 0.765625)"/>
       <use xlink:href="#DejaVuSans-38" transform="translate(64.580078 39.046875) scale(0.7)"/>
      </g>
     </g>
    </g>
    <g id="text_18">
     <!-- Matrix Size (N=M) -->
     <g transform="translate(713.185174 337.882062) scale(0.12 -0.12)">
      <use xlink:href="#DejaVuSans-4d"/>
      <use xlink:href="#DejaVuSans-61" transform="translate(86.279297 0)"/>
      <use xlink:href="#DejaVuSans-74" transform="translate(147.558594 0)"/>
      <use xlink:href="#DejaVuSans-72" transform="translate(186.767578 0)"/>
      <use xlink:href="#DejaVuSans-69" transform="translate(227.880859 0)"/>
      <use xlink:href="#DejaVuSans-78" transform="translate(255.664062 0)"/>
      <use xlink:href="#DejaVuSans-20" transform="translate(314.84375 0)"/>
      <use xlink:href="#DejaVuSans-53" transform="translate(346.630859 0)"/>
      <use xlink:href="#DejaVuSans-69" transform="translate(410.107422 0)"/>
      <use xlink:href="#DejaVuSans-7a" transform="translate(437.890625 0)"/>
      <use xlink:href="#DejaVuSans-65" transform="translate(490.380859 0)"/>
      <use xlink:href="#DejaVuSans-20" transform="translate(551.904297 0)"/>
      <use xlink:href="#DejaVuSans-28" transform="translate(583.691406 0)"/>
      <use xlink:href="#DejaVuSans-4e" transform="translate(622.705078 0)"/>
      <use xlink:href="#DejaVuSans-3d" transform="translate(697.509766 0)"/>
      <use xlink:href="#DejaVuSans-4d" transform="translate(781.298828 0)"/>
      <use xlink:href="#DejaVuSans-29" transform="translate(867.578125 0)"/>
     </g>
    </g>
   </g>
   <g id="matplotlib.axis_4">
    <g id="ytick_19">
     <g id="line2d_45">
      <path d="M 543.342408 274.872438 
L 991.821065 274.872438 
" clip-path="url(#p17e95831e3)" style="fill: none; stroke: #b0b0b0; stroke-opacity: 0.3; stroke-width: 0.8; stroke-linecap: square"/>
     </g>
     <g id="line2d_46">
      <g>
       <use xlink:href="#m1b3f90ccad" x="543.342408" y="274.872438" style="stroke: #000000; stroke-width: 0.8"/>
      </g>
     </g>
     <g id="text_19">
      <!-- 2 -->
      <g transform="translate(529.979908 278.671656) scale(0.1 -0.1)">
       <use xlink:href="#DejaVuSans-32"/>
      </g>
     </g>
    </g>
    <g id="ytick_20">
     <g id="line2d_47">
      <path d="M 543.342408 214.583976 
L 991.821065 214.583976 
" clip-path="url(#p17e95831e3)" style="fill: none; stroke: #b0b0b0; stroke-opacity: 0.3; stroke-width: 0.8; stroke-linecap: square"/>
     </g>
     <g id="line2d_48">
      <g>
       <use xlink:href="#m1b3f90ccad" x="543.342408" y="214.583976" style="stroke: #000000; stroke-width: 0.8"/>
      </g>
     </g>
     <g id="text_20">
      <!-- 4 -->
      <g transform="translate(529.979908 218.383194) scale(0.1 -0.1)">
       <defs>
        <path id="DejaVuSans-34" d="M 2419 4116 
L 825 1625 
L 2419 1625 
L 2419 4116 
z
M 2253 4666 
L 3047 4666 
L 3047 1625 
L 3713 1625 
L 3713 1100 
L 3047 1100 
L 3047 0 
L 2419 0 
L 2419 1100 
L 313 1100 
L 313 1709 
L 2253 4666 
z
" transform="scale(0.015625)"/>
       </defs>
       <use xlink:href="#DejaVuSans-34"/>
      </g>
     </g>
    </g>
    <g id="ytick_21">
     <g id="line2d_49">
      <path d="M 543.342408 154.295514 
L 991.821065 154.295514 
" clip-path="url(#p17e95831e3)" style="fill: none; stroke: #b0b0b0; stroke-opacity: 0.3; stroke-width: 0.8; stroke-linecap: square"/>
     </g>
     <g id="line2d_50">
      <g>
       <use xlink:href="#m1b3f90ccad" x="543.342408" y="154.295514" style="stroke: #000000; stroke-width: 0.8"/>
      </g>
     </g>
     <g id="text_21">
      <!-- 6 -->
      <g transform="translate(529.979908 158.094732) scale(0.1 -0.1)">
       <use xlink:href="#DejaVuSans-36"/>
      </g>
     </g>
    </g>
    <g id="ytick_22">
     <g id="line2d_51">
      <path d="M 543.342408 94.007052 
L 991.821065 94.007052 
" clip-path="url(#p17e95831e3)" style="fill: none; stroke: #b0b0b0; stroke-opacity: 0.3; stroke-width: 0.8; stroke-linecap: square"/>
     </g>
     <g id="line2d_52">
      <g>
       <use xlink:href="#m1b3f90ccad" x="543.342408" y="94.007052" style="stroke: #000000; stroke-width: 0.8"/>
      </g>
     </g>
     <g id="text_22">
      <!-- 8 -->
      <g transform="translate(529.979908 97.80627) scale(0.1 -0.1)">
       <use xlink:href="#DejaVuSans-38"/>
      </g>
     </g>
    </g>
    <g id="ytick_23">
     <g id="line2d_53">
      <path d="M 543.342408 33.71859 
L 991.821065 33.71859 
" clip-path="url(#p17e95831e3)" style="fill: none; stroke: #b0b0b0; stroke-opacity: 0.3; stroke-width: 0.8; stroke-linecap: square"/>
     </g>
     <g id="line2d_54">
      <g>
       <use xlink:href="#m1b3f90ccad" x="543.342408" y="33.71859" style="stroke: #000000; stroke-width: 0.8"/>
      </g>
     </g>
     <g id="text_23">
      <!-- 10 -->
      <g transform="translate(523.617408 37.517808) scale(0.1 -0.1)">
       <use xlink:href="#DejaVuSans-31"/>
       <use xlink:href="#DejaVuSans-30" transform="translate(63.623047 0)"/>
      </g>
     </g>
    </g>
    <g id="text_24">
     <!-- Speedup vs POT -->
     <g transform="translate(517.121783 214.880562) rotate(-90) scale(0.12 -0.12)">
      <defs>
       <path id="DejaVuSans-76" d="M 191 3500 
L 800 3500 
L 1894 563 
L 2988 3500 
L 3597 3500 
L 2284 0 
L 1503 0 
L 191 3500 
z
" transform="scale(0.015625)"/>
       <path id="DejaVuSans-4f" d="M 2522 4238 
Q 1834 4238 1429 3725 
Q 1025 3213 1025 2328 
Q 1025 1447 1429 934 
Q 1834 422 2522 422 
Q 3209 422 3611 934 
Q 4013 1447 4013 2328 
Q 4013 3213 3611 3725 
Q 3209 4238 2522 4238 
z
M 2522 4750 
Q 3503 4750 4090 4092 
Q 4678 3434 4678 2328 
Q 4678 1225 4090 567 
Q 3503 -91 2522 -91 
Q 1538 -91 948 565 
Q 359 1222 359 2328 
Q 359 3434 948 4092 
Q 1538 4750 2522 4750 
z
" transform="scale(0.015625)"/>
      </defs>
      <use xlink:href="#DejaVuSans-53"/>
      <use xlink:href="#DejaVuSans-70" transform="translate(63.476562 0)"/>
      <use xlink:href="#DejaVuSans-65" transform="translate(126.953125 0)"/>
      <use xlink:href="#DejaVuSans-65" transform="translate(188.476562 0)"/>
      <use xlink:href="#DejaVuSans-64" transform="translate(250 0)"/>
      <use xlink:href="#DejaVuSans-75" transform="translate(313.476562 0)"/>
      <use xlink:href="#DejaVuSans-70" transform="translate(376.855469 0)"/>
      <use xlink:href="#DejaVuSans-20" transform="translate(440.332031 0)"/>
      <use xlink:href="#DejaVuSans-76" transform="translate(472.119141 0)"/>
      <use xlink:href="#DejaVuSans-73" transform="translate(531.298828 0)"/>
      <use xlink:href="#DejaVuSans-20" transform="translate(583.398438 0)"/>
      <use xlink:href="#DejaVuSans-50" transform="translate(615.185547 0)"/>
      <use xlink:href="#DejaVuSans-4f" transform="translate(675.488281 0)"/>
      <use xlink:href="#DejaVuSans-54" transform="translate(754.199219 0)"/>
     </g>
    </g>
   </g>
   <g id="line2d_55">
    <path d="M 563.727801 295.165449 
L 699.630425 275.801124 
L 835.533048 258.355429 
L 971.435672 179.337484 
" clip-path="url(#p17e95831e3)" style="fill: none; stroke: #2ca02c; stroke-width: 2; stroke-linecap: square"/>
    <g clip-path="url(#p17e95831e3)">
     <use xlink:href="#m425b7d0e61" x="563.727801" y="295.165449" style="fill: #2ca02c; stroke: #2ca02c"/>
     <use xlink:href="#m425b7d0e61" x="699.630425" y="275.801124" style="fill: #2ca02c; stroke: #2ca02c"/>
     <use xlink:href="#m425b7d0e61" x="835.533048" y="258.355429" style="fill: #2ca02c; stroke: #2ca02c"/>
     <use xlink:href="#m425b7d0e61" x="971.435672" y="179.337484" style="fill: #2ca02c; stroke: #2ca02c"/>
    </g>
   </g>
   <g id="line2d_56">
    <path d="M 563.727801 273.107488 
L 699.630425 226.53675 
L 835.533048 146.052591 
L 971.435672 36.758176 
" clip-path="url(#p17e95831e3)" style="fill: none; stroke: #d62728; stroke-width: 2; stroke-linecap: square"/>
    <g clip-path="url(#p17e95831e3)">
     <use xlink:href="#m200d922314" x="563.727801" y="273.107488" style="fill: #d62728; stroke: #d62728"/>
     <use xlink:href="#m200d922314" x="699.630425" y="226.53675" style="fill: #d62728; stroke: #d62728"/>
     <use xlink:href="#m200d922314" x="835.533048" y="146.052591" style="fill: #d62728; stroke: #d62728"/>
     <use xlink:href="#m200d922314" x="971.435672" y="36.758176" style="fill: #d62728; stroke: #d62728"/>
    </g>
   </g>
   <g id="line2d_57">
    <path d="M 543.342408 305.016669 
L 991.821065 305.016669 
" clip-path="url(#p17e95831e3)" style="fill: none; stroke-dasharray: 3.7,1.6; stroke-dashoffset: 0; stroke: #000000"/>
   </g>
   <g id="patch_9">
    <path d="M 543.342408 308.085812 
L 543.342408 23.837812 
" style="fill: none; stroke: #000000; stroke-width: 0.8; stroke-linejoin: miter; stroke-linecap: square"/>
   </g>
   <g id="patch_10">
    <path d="M 991.821065 308.085812 
L 991.821065 23.837812 
" style="fill: none; stroke: #000000; stroke-width: 0.8; stroke-linejoin: miter; stroke-linecap: square"/>
   </g>
   <g id="patch_11">
    <path d="M 543.342408 308.085812 
L 991.821065 308.085812 
" style="fill: none; stroke: #000000; stroke-width: 0.8; stroke-linejoin: miter; stroke-linecap: square"/>
   </g>
   <g id="patch_12">
    <path d="M 543.342408 23.837812 
L 991.821065 23.837812 
" style="fill: none; stroke: #000000; stroke-width: 0.8; stroke-linejoin: miter; stroke-linecap: square"/>
   </g>
   <g id="text_25">
    <!-- Speedup over POT (Batch=8) -->
    <g transform="translate(664.56033 17.837812) scale(0.14 -0.14)">
     <use xlink:href="#DejaVuSans-53"/>
     <use xlink:href="#DejaVuSans-70" transform="translate(63.476562 0)"/>
     <use xlink:href="#DejaVuSans-65" transform="translate(126.953125 0)"/>
     <use xlink:href="#DejaVuSans-65" transform="translate(188.476562 0)"/>
     <use xlink:href="#DejaVuSans-64" transform="translate(250 0)"/>
     <use xlink:href="#DejaVuSans-75" transform="translate(313.476562 0)"/>
     <use xlink:href="#DejaVuSans-70" transform="translate(376.855469 0)"/>
     <use xlink:href="#DejaVuSans-20" transform="translate(440.332031 0)"/>
     <use xlink:href="#DejaVuSans-6f" transform="translate(472.119141 0)"/>
     <use xlink:href="#DejaVuSans-76" transform="translate(533.300781 0)"/>
     <use xlink:href="#DejaVuSans-65" transform="translate(592.480469 0)"/>
     <use xlink:href="#DejaVuSans-72" transform="translate(654.003906 0)"/>
     <use xlink:href="#DejaVuSans-20" transform="translate(695.117188 0)"/>
     <use xlink:href="#DejaVuSans-50" transform="translate(726.904297 0)"/>
     <use xlink:href="#DejaVuSans-4f" transform="translate(787.207031 0)"/>
     <use xlink:href="#DejaVuSans-54" transform="translate(865.917969 0)"/>
     <use xlink:href="#DejaVuSans-20" transform="translate(927.001953 0)"/>
     <use xlink:href="#DejaVuSans-28" transform="translate(958.789062 0)"/>
     <use xlink:href="#DejaVuSans-42" transform="translate(997.802734 0)"/>
     <use xlink:href="#DejaVuSans-61" transform="translate(1066.40625 0)"/>
     <use xlink:href="#DejaVuSans-74" transform="translate(1127.685547 0)"/>
     <use xlink:href="#DejaVuSans-63" transform="translate(1166.894531 0)"/>
     <use xlink:href="#DejaVuSans-68" transform="translate(1221.875 0)"/>
     <use xlink:href="#DejaVuSans-3d" transform="translate(1285.253906 0)"/>
     <use xlink:href="#DejaVuSans-38" transform="translate(1369.042969 0)"/>
     <use xlink:href="#DejaVuSans-29" transform="translate(1432.666016 0)"/>
    </g>
   </g>
   <g id="legend_2">
    <g id="patch_13">
     <path d="M 550.342408 75.872187 
L 739.30647 75.872187 
Q 741.30647 75.872187 741.30647 73.872187 
L 741.30647 30.837812 
Q 741.30647 28.837812 739.30647 28.837812 
L 550.342408 28.837812 
Q 548.342408 28.837812 548.342408 30.837812 
L 548.342408 73.872187 
Q 548.342408 75.872187 550.342408 75.872187 
z
" style="fill: #ffffff; opacity: 0.8; stroke: #cccccc; stroke-linejoin: miter"/>
    </g>
    <g id="line2d_58">
     <path d="M 552.342408 36.93625 
L 562.342408 36.93625 
L 572.342408 36.93625 
" style="fill: none; stroke: #2ca02c; stroke-width: 2; stroke-linecap: square"/>
     <g>
      <use xlink:href="#m425b7d0e61" x="562.342408" y="36.93625" style="fill: #2ca02c; stroke: #2ca02c"/>
     </g>
    </g>
    <g id="text_26">
     <!-- sinkhorn-triton(pytorch) vs POT -->
     <g transform="translate(580.342408 40.43625) scale(0.1 -0.1)">
      <use xlink:href="#DejaVuSans-73"/>
      <use xlink:href="#DejaVuSans-69" transform="translate(52.099609 0)"/>
      <use xlink:href="#DejaVuSans-6e" transform="translate(79.882812 0)"/>
      <use xlink:href="#DejaVuSans-6b" transform="translate(143.261719 0)"/>
      <use xlink:href="#DejaVuSans-68" transform="translate(201.171875 0)"/>
      <use xlink:href="#DejaVuSans-6f" transform="translate(264.550781 0)"/>
      <use xlink:href="#DejaVuSans-72" transform="translate(325.732422 0)"/>
      <use xlink:href="#DejaVuSans-6e" transform="translate(365.095703 0)"/>
      <use xlink:href="#DejaVuSans-2d" transform="translate(428.474609 0)"/>
      <use xlink:href="#DejaVuSans-74" transform="translate(464.558594 0)"/>
      <use xlink:href="#DejaVuSans-72" transform="translate(503.767578 0)"/>
      <use xlink:href="#DejaVuSans-69" transform="translate(544.880859 0)"/>
      <use xlink:href="#DejaVuSans-74" transform="translate(572.664062 0)"/>
      <use xlink:href="#DejaVuSans-6f" transform="translate(611.873047 0)"/>
      <use xlink:href="#DejaVuSans-6e" transform="translate(673.054688 0)"/>
      <use xlink:href="#DejaVuSans-28" transform="translate(736.433594 0)"/>
      <use xlink:href="#DejaVuSans-70" transform="translate(775.447266 0)"/>
      <use xlink:href="#DejaVuSans-79" transform="translate(838.923828 0)"/>
      <use xlink:href="#DejaVuSans-74" transform="translate(898.103516 0)"/>
      <use xlink:href="#DejaVuSans-6f" transform="translate(937.3125 0)"/>
      <use xlink:href="#DejaVuSans-72" transform="translate(998.494141 0)"/>
      <use xlink:href="#DejaVuSans-63" transform="translate(1037.357422 0)"/>
      <use xlink:href="#DejaVuSans-68" transform="translate(1092.337891 0)"/>
      <use xlink:href="#DejaVuSans-29" transform="translate(1155.716797 0)"/>
      <use xlink:href="#DejaVuSans-20" transform="translate(1194.730469 0)"/>
      <use xlink:href="#DejaVuSans-76" transform="translate(1226.517578 0)"/>
      <use xlink:href="#DejaVuSans-73" transform="translate(1285.697266 0)"/>
      <use xlink:href="#DejaVuSans-20" transform="translate(1337.796875 0)"/>
      <use xlink:href="#DejaVuSans-50" transform="translate(1369.583984 0)"/>
      <use xlink:href="#DejaVuSans-4f" transform="translate(1429.886719 0)"/>
      <use xlink:href="#DejaVuSans-54" transform="translate(1508.597656 0)"/>
     </g>
    </g>
    <g id="line2d_59">
     <path d="M 552.342408 51.614375 
L 562.342408 51.614375 
L 572.342408 51.614375 
" style="fill: none; stroke: #d62728; stroke-width: 2; stroke-linecap: square"/>
     <g>
      <use xlink:href="#m200d922314" x="562.342408" y="51.614375" style="fill: #d62728; stroke: #d62728"/>
     </g>
    </g>
    <g id="text_27">
     <!-- sinkhorn-triton(triton) vs POT -->
     <g transform="translate(580.342408 55.114375) scale(0.1 -0.1)">
      <use xlink:href="#DejaVuSans-73"/>
      <use xlink:href="#DejaVuSans-69" transform="translate(52.099609 0)"/>
      <use xlink:href="#DejaVuSans-6e" transform="translate(79.882812 0)"/>
      <use xlink:href="#DejaVuSans-6b" transform="translate(143.261719 0)"/>
      <use xlink:href="#DejaVuSans-68" transform="translate(201.171875 0)"/>
      <use xlink:href="#DejaVuSans-6f" transform="translate(264.550781 0)"/>
      <use xlink:href="#DejaVuSans-72" transform="translate(325.732422 0)"/>
      <use xlink:href="#DejaVuSans-6e" transform="translate(365.095703 0)"/>
      <use xlink:href="#DejaVuSans-2d" transform="translate(428.474609 0)"/>
      <use xlink:href="#DejaVuSans-74" transform="translate(464.558594 0)"/>
      <use xlink:href="#DejaVuSans-72" transform="translate(503.767578 0)"/>
      <use xlink:href="#DejaVuSans-69" transform="translate(544.880859 0)"/>
      <use xlink:href="#DejaVuSans-74" transform="translate(572.664062 0)"/>
      <use xlink:href="#DejaVuSans-6f" transform="translate(611.873047 0)"/>
      <use xlink:href="#DejaVuSans-6e" transform="translate(673.054688 0)"/>
      <use xlink:href="#DejaVuSans-28" transform="translate(736.433594 0)"/>
      <use xlink:href="#DejaVuSans-74" transform="translate(775.447266 0)"/>
      <use xlink:href="#DejaVuSans-72" transform="translate(814.65625 0)"/>
      <use xlink:href="#DejaVuSans-69" transform="translate(855.769531 0)"/>
      <use xlink:href="#DejaVuSans-74" transform="translate(883.552734 0)"/>
      <use xlink:href="#DejaVuSans-6f" transform="translate(922.761719 0)"/>
      <use xlink:href="#DejaVuSans-6e" transform="translate(983.943359 0)"/>
      <use xlink:href="#DejaVuSans-29" transform="translate(1047.322266 0)"/>
      <use xlink:href="#DejaVuSans-20" transform="translate(1086.335938 0)"/>
      <use xlink:href="#DejaVuSans-76" transform="translate(1118.123047 0)"/>
      <use xlink:href="#DejaVuSans-73" transform="translate(1177.302734 0)"/>
      <use xlink:href="#DejaVuSans-20" transform="translate(1229.402344 0)"/>
      <use xlink:href="#DejaVuSans-50" transform="translate(1261.189453 0)"/>
      <use xlink:href="#DejaVuSans-4f" transform="translate(1321.492188 0)"/>
      <use xlink:href="#DejaVuSans-54" transform="translate(1400.203125 0)"/>
     </g>
    </g>
    <g id="line2d_60">
     <path d="M 552.342408 66.2925 
L 562.342408 66.2925 
L 572.342408 66.2925 
" style="fill: none; stroke-dasharray: 3.7,1.6; stroke-dashoffset: 0; stroke: #000000"/>
    </g>
    <g id="text_28">
     <!-- POT baseline -->
     <g transform="translate(580.342408 69.7925) scale(0.1 -0.1)">
      <defs>
       <path id="DejaVuSans-62" d="M 3116 1747 
Q 3116 2381 2855 2742 
Q 2594 3103 2138 3103 
Q 1681 3103 1420 2742 
Q 1159 2381 1159 1747 
Q 1159 1113 1420 752 
Q 1681 391 2138 391 
Q 2594 391 2855 752 
Q 3116 1113 3116 1747 
z
M 1159 2969 
Q 1341 3281 1617 3432 
Q 1894 3584 2278 3584 
Q 2916 3584 3314 3078 
Q 3713 2572 3713 1747 
Q 3713 922 3314 415 
Q 2916 -91 2278 -91 
Q 1894 -91 1617 61 
Q 1341 213 1159 525 
L 1159 0 
L 581 0 
L 581 4863 
L 1159 4863 
L 1159 2969 
z
" transform="scale(0.015625)"/>
       <path id="DejaVuSans-6c" d="M 603 4863 
L 1178 4863 
L 1178 0 
L 603 0 
L 603 4863 
z
" transform="scale(0.015625)"/>
      </defs>
      <use xlink:href="#DejaVuSans-50"/>
      <use xlink:href="#DejaVuSans-4f" transform="translate(60.302734 0)"/>
      <use xlink:href="#DejaVuSans-54" transform="translate(139.013672 0)"/>
      <use xlink:href="#DejaVuSans-20" transform="translate(200.097656 0)"/>
      <use xlink:href="#DejaVuSans-62" transform="translate(231.884766 0)"/>
      <use xlink:href="#DejaVuSans-61" transform="translate(295.361328 0)"/>
      <use xlink:href="#DejaVuSans-73" transform="translate(356.640625 0)"/>
      <use xlink:href="#DejaVuSans-65" transform="translate(408.740234 0)"/>
      <use xlink:href="#DejaVuSans-6c" transform="translate(470.263672 0)"/>
      <use xlink:href="#DejaVuSans-69" transform="translate(498.046875 0)"/>
      <use xlink:href="#DejaVuSans-6e" transform="translate(525.830078 0)"/>
      <use xlink:href="#DejaVuSans-65" transform="translate(589.208984 0)"/>
     </g>
    </g>
   </g>
  </g>
 </g>
 <defs>
  <clipPath id="p60e4cfe94c">
   <rect x="47.41375" y="23.837812" width="448.478658" height="284.248"/>
  </clipPath>
  <clipPath id="p17e95831e3">
   <rect x="543.342408" y="23.837812" width="448.478658" height="284.248"/>
  </clipPath>
 </defs>
</svg>
